<?xml version="1.0" encoding="utf-8"?>
<!-- Generator: Adobe Illustrator 18.1.1, SVG Export Plug-In . SVG Version: 6.00 Build 0)  -->
<svg version="1.1" id="Layer_2" xmlns="http://www.w3.org/2000/svg" xmlns:xlink="http://www.w3.org/1999/xlink" x="0px" y="0px"
	 viewBox="0 0 400 412" enable-background="new 0 0 400 412" xml:space="preserve">
<path fill="#618A79" d="M200,225L200,225C200,225,200,225,200,225C200,225,200,225,200,225z"/>
<path fill="#618A79" d="M228.2,197.1L234,251h-67.7l5.9-54L228.2,197.1l11-0.2l30.5,0.1l-0.4-16h-62.5c0,0-17.6-50-1.7-72.7l-0.3-0.2c0.8,0.1,1.6,0.2,2.4,0.2c9.1,0,16.6-7.4,16.6-16.6c0-9.1-7.4-16.6-16.6-16.6c-9.2,0-16.6,7.4-16.6,16.6c0,4,1.4,7.6,3.7,10.4l-0.4-0.2h0l-0.5-0.5c0,0-13.8,32.5-0.4,79.5h-62.6l0.1,15.7l30.8,0.3L136,407l13,1.6l7.5-68.6l87.3,0.6l0,0.3l7.4,67.8l13-1.8l-25.1-210L228.2,197.1z M157.8,329l7.5-68h70l7.4,68H157.8z"/>
</svg>
